<?xml version="1.0" encoding="UTF-8"?>
<svg version="1.1" xmlns="http://www.w3.org/2000/svg" width="100" height="81">
<path d="M0 0 C2.19140625 1.75 2.19140625 1.75 4.5625 4 C9.0435928 8.1629087 13.67637166 12.04614578 18.45703125 15.859375 C21.13729204 18.11556995 23.62444315 20.42399221 26 23 C26 23.66 26 24.32 26 25 C25.32063385 25.23723785 24.6412677 25.47447571 23.9413147 25.71890259 C17.49484129 27.97226434 11.05222838 30.23636509 4.61364174 32.51215553 C1.30449032 33.68139819 -2.00594866 34.84664886 -5.31982422 36.00244141 C-9.14207711 37.33574744 -12.95777951 38.68699762 -16.7734375 40.0390625 C-17.94675629 40.44557037 -19.12007507 40.85207825 -20.32894897 41.27090454 C-29.64722318 44.59733403 -38.35655087 48.47075765 -45 56 C-44.09083602 49.18452645 -41.54387452 43.05282853 -39.07226562 36.68725586 C-38.25535317 34.57633273 -37.45540079 32.45949727 -36.65625 30.34179688 C-32.91180301 20.55049776 -29.97892143 13.04213827 -20.25 7.875 C-19.63527832 7.54443604 -19.02055664 7.21387207 -18.38720703 6.87329102 C-16.59473539 5.90943248 -14.79745862 4.95452625 -13 4 C-10.61694044 2.58023353 -8.23640428 1.15757692 -5.8671875 -0.28515625 C-3.40000664 -1.22970457 -2.42584198 -1.03434562 0 0 Z " fill="#C71116" transform="translate(74,2)"/>
<path d="M0 0 C1.29272461 1.5847168 1.29272461 1.5847168 2.40234375 3.44921875 C2.81806641 4.13306641 3.23378906 4.81691406 3.66210938 5.52148438 C4.29342773 6.59366211 4.29342773 6.59366211 4.9375 7.6875 C5.77765192 9.08861889 6.62008954 10.48836982 7.46484375 11.88671875 C8.08335205 12.91611572 8.08335205 12.91611572 8.71435547 13.96630859 C9.99773398 15.9964155 11.38007543 17.90798542 12.81640625 19.83203125 C15 23 15 23 15 26 C10.83891375 26.86202117 6.67632329 27.7162446 2.51220703 28.56347656 C1.09771277 28.85238629 -0.31635928 29.14337165 -1.72998047 29.43652344 C-3.7694148 29.85907008 -5.81028288 30.27397178 -7.8515625 30.6875 C-9.68968506 31.06455078 -9.68968506 31.06455078 -11.56494141 31.44921875 C-14.78309678 31.96522149 -17.74862238 32.10446193 -21 32 C-26.69722432 19.45845921 -26.69722432 19.45845921 -25.5625 14.5 C-21.71822452 5.88882292 -15.01410477 2.22849101 -6.625 -1.5 C-3.47698057 -2.09962275 -2.66258989 -1.67152386 0 0 Z " fill="#000000" transform="translate(54,49)"/>
<path d="M0 0 C1 2 1 2 -0.09228516 5.43652344 C-0.64906648 6.91415744 -1.21537574 8.38822198 -1.7890625 9.859375 C-2.23951431 11.03237152 -2.23951431 11.03237152 -2.69906616 12.22906494 C-3.33920549 13.88829053 -3.98342244 15.54594772 -4.63134766 17.20214844 C-5.61356049 19.72066764 -6.5750488 22.24642284 -7.53515625 24.7734375 C-8.16020384 26.38590351 -8.78646846 27.99789839 -9.4140625 29.609375 C-9.69762604 30.35958923 -9.98118958 31.10980347 -10.27334595 31.88275146 C-12.56686544 37.66504736 -15.17458057 42.6114233 -20.97265625 45.4609375 C-21.99230469 45.76257812 -23.01195313 46.06421875 -24.0625 46.375 C-25.08472656 46.69210938 -26.10695313 47.00921875 -27.16015625 47.3359375 C-30 48 -30 48 -34 48 C-35.00990692 45.08666921 -36.00615952 42.16884681 -37 39.25 C-37.28617188 38.425 -37.57234375 37.6 -37.8671875 36.75 C-38.13789062 35.95078125 -38.40859375 35.1515625 -38.6875 34.328125 C-38.93886719 33.5949707 -39.19023438 32.86181641 -39.44921875 32.10644531 C-40 30 -40 30 -40 26 C-39.19892822 25.61779297 -38.39785645 25.23558594 -37.57250977 24.84179688 C-34.55289202 23.3922757 -31.5403925 21.92957594 -28.53149414 20.45800781 C-27.23748457 19.82841159 -25.94098712 19.20389853 -24.6418457 18.58496094 C-14.90575337 13.94049543 -6.41023735 8.94486278 0 0 Z " fill="#C71116" transform="translate(40,15)"/>
<path d="M0 0 C2.66842439 1.08810569 3.49914802 2.20109119 4.84106445 4.75073242 C5.65523788 9.36438185 4.85186751 12.30917492 2.52856445 16.25073242 C-1.25779086 21.53170168 -6.3620352 24.92053461 -12.15893555 27.75073242 C-13.14893555 27.75073242 -14.13893555 27.75073242 -15.15893555 27.75073242 C-16.19437729 25.84191808 -17.21183639 23.92334038 -18.22143555 22.00073242 C-18.78991211 20.93338867 -19.35838867 19.86604492 -19.9440918 18.76635742 C-21.24118397 15.54656591 -21.42544424 14.84567813 -20.15893555 11.75073242 C-17.49077853 9.28767108 -14.38295617 7.42102629 -11.34643555 5.43823242 C-10.52594727 4.87555664 -9.70545898 4.31288086 -8.86010742 3.7331543 C-7.66804688 2.94328125 -7.66804688 2.94328125 -6.4519043 2.13745117 C-5.36171997 1.41368286 -5.36171997 1.41368286 -4.24951172 0.67529297 C-2.15893555 -0.24926758 -2.15893555 -0.24926758 0 0 Z " fill="#000000" transform="translate(35.158935546875,0.249267578125)"/>
<path d="" fill="#C21012" transform="translate(0,0)"/>
</svg>
